HIERARCHY
ROOT simHips
{
  OFFSET -189.851 99.7575 44.8907
  CHANNELS 6 Xposition Yposition Zposition Zrotation Xrotation Yrotation
  JOINT simSpine
  {
    OFFSET -0.000355721 21.3001 -0.016921
    CHANNELS 3 Zrotation Xrotation Yrotation
    JOINT simLeftArm
    {
      OFFSET 13.5181 21.3012 0
      CHANNELS 3 Zrotation Xrotation Yrotation
      JOINT simLeftForeArm
      {
        OFFSET 24.5783 0 0
        CHANNELS 3 Zrotation Xrotation Yrotation
        JOINT simLeftHand
        {
          OFFSET 24.5783 0 0
          CHANNELS 3 Zrotation Xrotation Yrotation
          End Site
          {
            OFFSET 7.32568 1.52588e-05 0.0169305
          }
        }
      }
    }
    JOINT simHead
    {
      OFFSET 0 27.4458 -0.00489235
      CHANNELS 3 Zrotation Xrotation Yrotation
      End Site
      {
        OFFSET 0 0 0
      }
    }
    JOINT simRightArm
    {
      OFFSET -13.5174 21.3012 0
      CHANNELS 3 Zrotation Xrotation Yrotation
      JOINT simRightForeArm
      {
        OFFSET -24.5783 0 0
        CHANNELS 3 Zrotation Xrotation Yrotation
        JOINT simRightHand
        {
          OFFSET -24.5783 0 0
          CHANNELS 3 Zrotation Xrotation Yrotation
          End Site
          {
            OFFSET -7.32568 1.52588e-05 0.0169305
          }
        }
      }
    }
  }
  JOINT simRightUpLeg
  {
    OFFSET -8.44614 -9.41038 0.835684
    CHANNELS 3 Zrotation Xrotation Yrotation
    JOINT simRightLeg
    {
      OFFSET 0 -40.9639 0
      CHANNELS 3 Zrotation Xrotation Yrotation
      JOINT simRightFoot
      {
        OFFSET 0 -40.9639 0
        CHANNELS 3 Zrotation Xrotation Yrotation
        End Site
        {
          OFFSET 0.50614 -9.67405 14.6709
        }
      }
    }
  }
  JOINT simLeftUpLeg
  {
    OFFSET 8.44614 -9.41038 0.835684
    CHANNELS 3 Zrotation Xrotation Yrotation
    JOINT simLeftLeg
    {
      OFFSET 0 -40.9639 0
      CHANNELS 3 Zrotation Xrotation Yrotation
      JOINT simLeftFoot
      {
        OFFSET 0 -40.9639 0
        CHANNELS 3 Zrotation Xrotation Yrotation
        End Site
        {
          OFFSET -0.50614 -9.67405 14.6709
        }
      }
    }
  }
}
MOTION
Frames:	22
Frame Time:	0.0333333
-141.801 135.918 -22.3513 6.46222 -60.2167 122.815 22.2461 33.2239 -21.1644 32.4961 22.9598 -42.5126 39.5455 -26.095 -75.0384 19.6505 1.87339 -9.67004 50.1319 -1.10042 -59.475 56.6944 0.966538 -34.3733 -30.2139 -17.6321 48.6627 -25.8554 5.58425 7.17669 -55.9106 -8.85549 4.13599 -0.503962 8.87186e-07 -0.480158 10.3766 35.5658 6.70555 65.4939 -24.5199 29.1198 -15.7523 29.0773 3.69278 -3.18469 15.132 -7.25047 
-138.823 130.536 -22.6259 -13.5002 -63.7539 103.506 12.3863 26.2303 -9.84638 28.8329 4.18459 -19.1757 39.6828 -26.4468 -75.566 26.4406 -12.4126 -6.42588 49.3366 -6.22993 -59.6327 58.3003 -3.71348 -40.3042 -28.1633 -15.0973 44.5988 -23.1241 0.575116 4.85231 -50.9101 2.33837 1.89837 1.82949 3.68758 -0.395498 12.6536 38.9746 3.2298 67.3362 -25.7681 30.2885 -9.6193 18.8365 1.06287 -1.47536 13.7261 -2.59188 
-135.01 124.712 -21.8047 -31.0148 -60.7455 84.8229 -0.376961 18.7148 -2.28994 31.113 -7.24507 0.351407 37.4333 -21.5753 -68.1242 26.5613 -3.07611 -5.92568 45.2749 -9.13082 -56.1412 66.8285 -7.4532 -42.4723 -30.3259 -17.7796 48.8913 -23.3137 -14.4887 0.374375 -46.974 9.24639 0.0937965 6.38243 13.5552 -0.677109 15.1837 37.944 2.4781 64.9692 -23.4502 28.8958 -7.85382 12.2042 0.547207 5.07548 15.0922 3.00541 
-131.283 118.239 -20.1677 -42.6107 -54.6316 70.6038 -12.0004 7.78753 3.4606 31.7332 -5.29883 5.57695 31.4676 -13.1938 -53.8914 31.4419 -2.32578 2.02558 38.9841 -7.54317 -49.387 76.6246 -11.9332 -40.4832 -32.8936 -21.5403 54.4983 -24.9232 -14.0019 0.328056 -39.3245 14.736 6.92651 8.26585 20.3339 -1.18639 17.9202 35.9451 0.946179 59.6608 -20.2199 30.3648 -5.88654 7.76629 0.236487 1.94377 23.9976 3.44588 
-129.478 111.24 -18.3365 -42.5487 -51.0183 67.8867 -19.8675 4.52306 8.70652 28.879 -8.2832 -1.50676 25.5147 -7.56879 -41.9944 29.8065 -0.335375 7.02538 32.484 -8.44624 -35.6753 83.1782 -8.46162 -31.1877 -33.674 -22.8426 56.3571 -26.9606 -14.9973 -0.741236 -28.3226 24.3052 15.8098 11.0247 25.7285 -2.20085 16.4794 32.4247 4.1957 55.8315 -19.9695 24.9334 -6.86098 12.4056 0.651886 1.89885 27.2964 3.11761 
-130.463 103.301 -17.0354 -41.0123 -48.4927 67.2396 -25.2765 6.69684 13.7426 21.3432 -17.584 -14.9656 20.6552 -4.43065 -33.3918 32.9126 2.01927 3.27046 23.2229 -10.9035 -18.8778 77.6159 5.20029 -16.5883 -33.5295 -22.5948 56.0061 -27.3504 -12.4476 -3.14004 -18.6011 29.7776 9.98481 17.0848 34.8801 -5.16289 14.8894 28.5824 8.38587 55.337 -24.584 24.9504 -16.1833 29.7653 4.21505 16.8947 -0.930104 24.5659 
-133.343 96.8596 -17.364 -44.3054 -43.1488 61.9943 -33.7422 10.1355 16.8599 14.5722 -27.4841 -28.6598 16.4983 -2.45543 -26.3096 31.0931 7.4517 0.256943 17.3875 -22.7344 -4.54942 60.3643 15.2614 6.22388 -33.1934 -22.0303 55.2018 -24.3595 -8.13629 -1.0326 -12.0161 22.3937 0.605866 27.599 48.5001 -12.2585 27.0006 30.0274 3.34524 53.7878 -30.1662 26.5765 -21.4497 37.3083 7.35124 27.7725 -13.0992 36.9446 
-137.262 92.7367 -19.9388 -49.3291 -34.7702 57.9041 -45.329 17.6352 15.1767 24.6332 -30.3022 -31.5467 9.65252 -0.49662 -15.2974 26.3573 13.1263 0.843563 18.8797 -40.0005 4.95254 39.3678 12.1609 34.3628 -33.6373 -22.7794 56.2676 -23.1131 -4.06411 -1.03172 -7.6736 5.80666 -7.08493 42.9159 59.3349 -25.1719 34.4772 38.5097 0.904699 57.4199 -42.7788 34.3498 -32.7177 48.7446 15.2158 29.8002 -15.8172 41.0343 
-140.68 88.0682 -24.2021 -55.1879 -25.5859 57.7311 -49.5737 27.5091 11.5551 34.573 -21.0392 -27.5743 8.89 -0.368461 -14.1255 44.5754 23.1592 1.34676 13.445 -42.6191 1.7727 20.7005 -0.627148 54.2732 -33.6484 -22.8184 56.3236 -28.577 0.937397 1.01953 -10.0853 -12.7926 -18.7524 60.7841 65.467 -41.0177 35.5704 35.6342 -1.6912 66.6659 -57.7602 52.2663 -45.8608 56.7105 25.8831 31.0654 -13.7759 43.2588 
-142.673 82.5188 -29.8159 -59.1499 -17.8058 57.1163 -47.2228 35.6017 13.4103 23.8762 -21.0036 -29.6348 20.3526 -4.267 -32.8724 55.6753 33.4038 13.4509 4.43626 -29.0002 -12.1575 5.35238 -14.0701 68.5877 -29.2363 -16.3837 46.694 -30.6222 3.60805 2.33197 -17.2154 -28.0668 -26.9659 74.7381 67.7222 -53.9535 33.531 36.4445 0.204831 70.2608 -65.0836 66.7573 -48.7217 57.9286 28.4655 37.845 -17.3825 39.9522 
-142.535 77.0048 -36.0716 -61.6639 -11.0902 53.6728 -43.6805 40.3247 21.0092 11.589 -16.8885 -32.1174 30.9084 -12.4459 -52.4709 49.9571 44.8811 20.8536 7.90791 -14.6352 -21.6725 -5.44492 -21.433 77.6818 -20.2637 -7.80951 30.7144 -39.5941 13.3716 1.60095 -23.5853 -37.2756 -30.5016 75.9956 67.8441 -55.1957 31.0082 37.356 4.00477 70.2973 -67.4748 78.0955 -49.7395 58.322 29.5563 46.7432 -20.0074 34.5132 
-140.759 71.6324 -42.1966 -62.5008 -4.85312 48.8824 -40.8619 44.2224 31.0522 -7.51649 -17.4604 -39.745 35.262 -17.966 -62.3071 50.7604 47.882 22.7358 16.8172 -10.8585 -25.3884 -13.7787 -17.2357 73.5049 -18.5013 -6.59262 27.8543 -85.8678 10.0677 -11.4798 -27.6637 -40.0282 -31.2837 73.9727 67.7026 -52.9016 24.0851 28.1717 2.3024 68.0595 -69.8322 82.6092 -52.409 59.2697 32.2288 56.925 -18.116 25.4327 
-138.425 65.6071 -47.9475 -61.5195 0.828305 42.4568 -37.0907 45.3461 38.7898 -9.16935 -3.48111 -30.5226 37.4145 -21.5355 -68.062 60.5945 44.9616 19.1291 18.605 -8.11629 -26.7223 4.87237 -12.5434 71.9893 -27.0406 -13.8434 42.4793 -73.5646 19.5122 6.29667 -31.4906 -38.3499 -30.4577 74.3202 67.7948 -53.0011 17.79 24.1618 0.0146058 61.9269 -71.4917 77.3152 -53.0446 59.4677 33.1494 66.6607 -21.6945 12.5443 
-135.775 58.1997 -53.9818 -58.7985 3.53895 32.6799 -30.8605 44.9548 39.6204 -17.4574 13.8487 -19.1788 37.8246 -22.321 -69.2871 77.1382 43.7969 5.94676 15.5995 -0.751885 -24.638 -7.42554 -10.6376 71.7665 -26.1511 -12.9073 40.8414 -71.8651 19.2133 4.48066 -34.5967 -33.9248 -24.8362 73.498 67.63 -52.5687 19.1335 33.1086 -1.24999 84.0656 -66.4437 95.8336 -88.5316 64.8965 63.4897 29.0506 -33.306 -19.9354 
-132.251 49.8877 -59.8458 -56.6109 7.72756 20.382 -24.2704 39.4401 34.7545 -33.2836 27.2098 -11.4153 37.197 -21.1216 -67.409 89.3462 46.2174 0.730381 18.6405 -1.06603 -25.5556 -12.9582 -8.06339 84.7306 -23.4102 -10.3178 35.9968 -69.4694 18.7523 3.3747 -40.6757 -32.5791 -19.9803 70.392 67.2262 -49.7834 21.1686 37.6318 -5.10471 83.3821 -59.2208 103.406 -94.2075 64.8341 68.3172 -3.27243 -21.8428 -38.3196 
-127.934 40.9799 -65.0242 -54.1763 7.38081 9.56753 -16.7629 39.0542 33.5515 -49.1936 36.1714 -15.3244 36.2194 -19.4585 -64.7554 95.0919 53.4035 5.84569 18.5282 -4.93959 -31.8816 -8.67256 -1.49453 96.9957 -20.6737 -8.11368 31.3831 -63.7621 20.8705 13.1138 -45.3772 -27.3631 -13.5645 63.176 66.0323 -43.0507 20.0309 36.7471 -10.0039 80.6477 -60.8232 100.663 -92.228 64.8506 66.5423 -10.443 -10.2219 -24.9367 
-123.158 33.0427 -69.2886 -51.9397 -0.184184 -5.15966 -20.0743 46.4022 38.2829 -47.8 45.0689 -34.7073 36.386 -19.7336 -65.1996 96.5987 50.4693 -2.42582 20.7033 -12.2485 -41.8288 3.73144 0.958241 95.1737 -29.4293 -16.6225 47.0756 -10.7062 -6.07935 13.2075 -45.84 -22.2165 3.38977 55.429 64.1641 -36.0083 16.5229 38.093 -8.38626 68.466 -66.0221 79.7466 -92.9126 64.8468 66.9939 -9.39319 -14.1508 -15.3033 
-117.957 24.8084 -72.4645 -53.3575 -1.73616 -23.4379 -22.4997 44.626 34.6976 -43.5821 40.7887 -40.6304 36.5565 -20.02 -65.6596 58.4425 -3.93003 7.90584 21.8593 -0.832242 -53.3404 12.6998 15.2447 91.7068 -35.0383 -25.3582 59.8602 -19.4765 -14.3521 4.86735 -47.329 -26.3372 13.8018 48.1525 61.7054 -29.6041 14.5678 40.4077 -5.4466 67.5017 -62.9097 79.4504 -77.8269 64.3666 53.4018 -1.68317 -13.0418 -8.88504 
-112.601 17.549 -74.9161 -58.3925 -0.503659 -41.0407 -25.2482 45.3686 24.7586 -37.8749 38.4953 -44.6667 38.6138 -23.9329 -71.7677 65.1763 7.47813 0.558707 24.4675 6.98511 -58.5964 24.6109 19.698 82.9906 -36.5293 -28.5816 64.2281 -25.1381 -19.0813 -2.2954 -46.4135 -30.2035 11.6809 39.5582 57.6756 -22.0324 8.91764 35.8061 -8.60785 74.4796 -58.8665 80.7822 -59.3776 61.3638 37.2295 13.7635 -4.30167 1.62642 
-108.285 14.496 -76.8022 -68.9358 2.86625 -59.1426 -34.8068 47.3775 18.7957 -34.1526 40.1947 -38.7556 40.0243 -27.3597 -76.9304 62.0605 4.53413 3.13047 32.8944 15.1792 -61.2221 37.9599 28.891 72.8539 -36.1627 -27.7291 63.0827 -28.4552 -14.4663 -3.35557 -40.9211 -26.5855 1.95625 32.102 52.6685 -15.5771 23.5449 24.09 -19.3236 73.4751 -48.442 62.3961 -38.5479 52.8112 20.0349 25.5886 12.9729 10.2204 
-105.781 11.6399 -77.4833 -75.4796 9.49462 -73.1474 -36.8786 45.9124 8.23224 -39.5377 47.4794 -34.0711 39.1569 -25.1543 -73.6219 60.3112 7.94639 2.11478 27.6029 24.3407 -58.9756 39.0922 41.8661 56.4763 -36.926 -29.5561 65.5305 -32.5743 -19.4144 -8.04419 -41.0071 -25.6408 -22.449 27.1413 48.2634 -12.0169 -5.40799 28.0366 -2.89204 71.3341 -41.8622 40.3041 -29.2771 45.8177 13.1259 29.5526 13.4011 2.72378 
-104.782 8.7755 -78.0819 -78.7969 13.8956 -86.8938 -40.7733 44.278 0.995653 -39.9303 50.782 -39.2065 37.0286 -20.8379 -66.9628 54.5468 9.84918 4.38744 21.0652 20.7121 -51.5369 46.6871 43.5576 34.4011 -37.8674 -32.1694 69.0045 -29.6033 -13.0467 2.55876 -48.3767 -28.2521 -42.139 31.4571 52.3198 -14.3749 -2.60218 7.47503 -11.848 66.2809 -35.5021 16.6144 -29.6605 46.228 13.0736 21.5941 4.49755 0.980475 
